<?xml version="1.0" encoding="utf-8"?>
<!-- Generator: Adobe Illustrator 16.0.0, SVG Export Plug-In . SVG Version: 6.00 Build 0)  -->
<!DOCTYPE svg PUBLIC "-//W3C//DTD SVG 1.1//EN" "http://www.w3.org/Graphics/SVG/1.1/DTD/svg11.dtd">
<svg version="1.1" xmlns="http://www.w3.org/2000/svg" xmlns:xlink="http://www.w3.org/1999/xlink" x="0px" y="0px" width="512px"
	 height="512px" viewBox="0 0 512 512" enable-background="new 0 0 512 512" xml:space="preserve">
<g id="Layer_1">
	<path d="M441.472,319.84c-2.001-27.381-8.742-54.254-20.034-79.879c-13.802-31.328-34.503-60.916-61.526-87.939
		c-62.35-62.35-126.704-78.803-169.711-81.625c-5.323-0.35-10.475-0.506-15.43-0.506c-39.53,0-66.637,9.949-69.919,11.213
		c-5.262,2.025-10.224,5.275-14.347,9.398c-3.993,3.992-7.167,8.771-9.201,13.844l-0.186,0.473
		c-1.428,3.701-13.859,37.545-10.722,85.381c2.824,43.008,19.277,107.359,81.628,169.709c27.017,27.02,56.598,47.717,87.914,61.52
		c25.623,11.293,52.493,18.035,79.866,20.041c6.052,0.443,11.881,0.641,17.451,0.641c37.891,0,64.005-9.072,69.582-11.188
		c5.354-2.02,10.399-5.301,14.593-9.494c4.191-4.191,7.472-9.236,9.491-14.588C433.355,400.43,444.923,367.027,441.472,319.84z
		 M402.864,396.221l-0.012,0.029c-0.512,1.357-1.472,2.801-2.637,3.967c-1.163,1.162-2.609,2.123-3.966,2.635l-0.026,0.012
		l-0.026,0.01c-0.961,0.363-4.96,1.822-11.428,3.477c-23.078-38.965-46.587-73.35-69.688-103.535
		c-2.519,5.205-4.087,10.402-4.515,15.238c-0.627,7.088-6.88,12.326-13.966,11.699c-3.134-0.277-5.907-1.654-7.971-3.719
		c-2.603-2.602-4.078-6.293-3.728-10.246c1.014-11.48,5.607-23.527,13.022-34.73c-9.471-11.662-18.834-22.625-28.031-32.92
		c-4.501,7.176-7.314,14.604-7.909,21.334c-0.627,7.088-6.879,12.326-13.965,11.699c-3.135-0.275-5.907-1.654-7.971-3.719
		c-2.603-2.602-4.078-6.293-3.729-10.246c1.129-12.787,6.686-26.281,15.654-38.525c-10.325-10.871-20.376-20.881-30.06-30.07
		c-4.855,7.467-7.891,15.254-8.512,22.281c-0.627,7.088-6.879,12.326-13.966,11.699c-3.134-0.277-5.907-1.656-7.971-3.719
		c-2.603-2.604-4.078-6.293-3.729-10.248c1.102-12.467,6.425-25.605,15.003-37.602c-8.509-7.539-16.649-14.404-24.34-20.617
		c-25.868-20.9-48.963-36.441-67.594-47.662c0.284-0.355,0.584-0.701,0.908-1.025c1.147-1.146,2.571-2.1,3.912-2.615
		c0.71-0.273,13.274-5.023,33.472-7.592c14.18,9.492,29.896,20.879,46.776,34.449c9.326,7.496,18.568,15.328,27.724,23.449
		c13.333-10.305,28.236-16.477,42.266-17.266c7.104-0.4,13.186,5.035,13.585,12.139c0.4,7.102-5.034,13.186-12.138,13.584
		c-7.502,0.424-16.157,3.824-24.318,9.328c10.182,9.652,20.231,19.686,30.138,30.074c13.09-9.867,27.617-15.773,41.315-16.543
		c7.103-0.4,13.186,5.033,13.585,12.137s-5.035,13.186-12.139,13.586c-7.747,0.436-16.724,4.051-25.117,9.877
		c7.568,8.416,15.045,17.035,22.413,25.867c1.735,2.08,3.456,4.189,5.181,6.291c13.926-11.449,29.781-18.34,44.658-19.178
		c7.104-0.398,13.187,5.035,13.586,12.139s-5.035,13.186-12.139,13.586c-9.286,0.521-20.333,5.609-30.029,13.604
		c25.43,32.768,49.512,68.08,72.052,105.592c-1.688,6.699-3.207,10.869-3.623,11.965L402.864,396.221z"/>
</g>
<g id="Layer_2">
</g>
</svg>
